<?xml version="1.0" encoding="UTF-8"?>
<svg id="Layer_1" data-name="Layer 1" xmlns="http://www.w3.org/2000/svg" viewBox="0 0 255.51 196.8">
  <defs>
    <style>
      .cls-1 {
        fill: #359f00;
      }

      .cls-2 {
        fill: #315708;
      }

      .cls-3 {
        fill: #3b680b;
      }
    </style>
  </defs>
  <g id="leaf">
    <path class="cls-3" d="M255.51,113.15s-28.69,55.41-78.33,76.04-84.64-5.92-132.02-17.74c-18.05-4.5-33.26-7.06-45.16-8.49v-14.78l3.66-1.6c.25-.22,1.41-1.05,3.34-2.37h.01s.02-.02,.04-.03h.01c3.98-2.71,11.19-7.43,20.4-12.98,27.27-16.41,72.08-40.07,102.72-40.28,46.1-.32,125.33,22.23,125.33,22.23Z"/>
    <path id="Path_3" data-name="Path 3" class="cls-1" d="M3.68,156.5s211-27.07,224.84-32.48L3.68,156.5Z"/>
  </g>
  <g id="leaf-2">
    <path class="cls-2" d="M85.87,68.09c-7.31,33.17-33.73,41.66-57.02,61.9-.47,.41-.93,.82-1.39,1.21-14.24,12.56-23,22.96-27.46,28.81v-12.92l.94-4.64c-.2-1.89,.51-61.67,17.04-85.65C34.52,32.83,74.91,0,74.91,0c0,0,18.28,34.92,10.96,68.09Z"/>
    <path id="Path_3-2" data-name="Path 3-2" class="cls-1" d="M6.08,146.04S68.54,27.03,70.75,17.91L6.08,146.04Z"/>
  </g>
</svg>